PathFileType	4	(x/y/z)	TRC_MarkerData\Calibration\Standing_Cal_SL_Passive0001.trc
DataRate	CameraRate	NumFrames	NumMarkers	Units	OrigDataRate	OrigDataStartFrame	OrigNumFrames
240	240	4	50	mm	240	213	849
Frame#	Time	R_AC			L_AC			HEAD			STERN			C7			L_IC			R_IC			L_ASIS			R_ASIS			L_GT			R_GT			L_PSIS			R_PSIS			SACRAL			L_LAT_KNEE			L_MED_KNEE			R_LAT_KNEE			R_MED_KNEE			L_LAT_ANK			L_MED_ANK			R_LAT_ANK			R_MED_ANK			L_THIGH_PROX_POST			L_THIGH_PROX_ANT			L_THIGH_DIST_ANT			L_THIGH_DIST_POST			R_THIGH_PROX_POST			R_THIGH_PROX_ANT			R_THIGH_DIST_ANT			R_THIGH_DIST_POST			L_SHANK_PROX_POST			L_SHANK_PROX_ANT			L_SHANK_DIST_ANT			L_SHANK_DIST_POST			R_SHANK_PROX_POST			R_SHANK_PROX_ANT			R_SHANK_DIST_ANT			R_SHANK_DIST_POST			L_HEEL_LAT			L_HEEL_SUP			L_HEEL_MED			R_HEEL_LAT			R_HEEL_SUP			R_HEEL_MED			L_1ST_MET			L_5TH_MET			L_TOE			R_1ST_MET			R_5TH_MET			R_TOE			
		X1	Y1	Z1	X2	Y2	Z2	X3	Y3	Z3	X4	Y4	Z4	X5	Y5	Z5	X6	Y6	Z6	X7	Y7	Z7	X8	Y8	Z8	X9	Y9	Z9	X10	Y10	Z10	X11	Y11	Z11	X12	Y12	Z12	X13	Y13	Z13	X14	Y14	Z14	X15	Y15	Z15	X16	Y16	Z16	X17	Y17	Z17	X18	Y18	Z18	X19	Y19	Z19	X20	Y20	Z20	X21	Y21	Z21	X22	Y22	Z22	X23	Y23	Z23	X24	Y24	Z24	X25	Y25	Z25	X26	Y26	Z26	X27	Y27	Z27	X28	Y28	Z28	X29	Y29	Z29	X30	Y30	Z30	X31	Y31	Z31	X32	Y32	Z32	X33	Y33	Z33	X34	Y34	Z34	X35	Y35	Z35	X36	Y36	Z36	X37	Y37	Z37	X38	Y38	Z38	X39	Y39	Z39	X40	Y40	Z40	X41	Y41	Z41	X42	Y42	Z42	X43	Y43	Z43	X44	Y44	Z44	X45	Y45	Z45	X46	Y46	Z46	X47	Y47	Z47	X48	Y48	Z48	X49	Y49	Z49	X50	Y50	Z50	

213	0.88438	395.17	1555.4	463.13	411.56	1577.2	169.01	443.62	1816.7	331.57	495.5	1493.9	317.13	354.94	1576.4	317.68	463.41	1106.5	144.1	463.58	1117	466.27	523.42	1023.7	168.06	533.52	1026.5	440.66	440.91	937.28	108.77	449.6	951.89	497.29	343.47	1082.5	257.23	344.54	1088	350.13	329.41	1055.1	302.73	407.19	535.6	149.76	379.58	521.78	283.94	401.37	541.13	474.7	379.73	549.02	344.11	382.42	114.33	147.39	386.67	110.22	218.67	375.39	108.64	449.26	383.99	127.81	358.92	414.22	766.06	131.78	475.44	757.84	152.51	470.55	684.27	165.67	407.88	691.3	143.83	383.98	749.73	485.75	451.88	748.27	491.68	443.76	673.66	483.62	376.52	675.58	477.71	390.87	449.76	147.97	434.78	459.24	173.02	424.1	400.78	174.87	366.8	390.46	166.85	332.66	373.49	482.5	401.75	377.99	481.78	400.04	302.24	469.8	329.65	301.07	469.58	302.42	42.026	155.34	297.74	70.1	189.24	309.7	40.781	222.06	307.09	40.332	420.02	304.1	70.071	387.3	320.29	45.447	354.06	517.58	53.639	219.96	479.2	40.383	117.63	575.54	62.503	183.95	530.01	56.81	370.85	488.78	40.208	474.83	580.31	55.473	422.5
214	0.88855	395.14	1555.4	463.15	411.44	1577.2	169.05	443.65	1816.7	331.56	495.45	1493.9	317.15	354.9	1576.4	317.71	463.33	1106.5	144.11	463.52	1117	466.29	523.36	1023.7	168.08	533.47	1026.5	440.68	440.86	937.28	108.8	449.54	951.9	497.32	343.41	1082.5	257.26	344.48	1088	350.16	329.35	1055.1	302.76	407.19	535.6	149.77	379.57	521.79	283.94	401.35	541.13	474.71	379.71	549.02	344.12	382.42	114.33	147.39	386.67	110.22	218.68	375.39	108.63	449.26	383.99	127.8	358.92	414.19	766.06	131.8	475.41	757.85	152.52	470.53	684.27	165.68	407.86	691.3	143.84	383.93	749.73	485.76	451.84	748.27	491.7	443.72	673.66	483.64	376.49	675.58	477.72	390.86	449.76	147.98	434.77	459.24	173.02	424.1	400.78	174.88	366.8	390.46	166.86	332.63	373.48	482.5	401.72	377.98	481.78	400.02	302.24	469.8	329.62	301.03	469.51	302.42	42.026	155.34	297.74	70.1	189.24	309.71	40.778	222.06	307.09	40.329	420.02	304.1	70.07	387.3	320.29	45.444	354.06	517.58	53.64	219.96	479.2	40.384	117.63	575.54	62.503	183.95	530.01	56.813	370.85	488.78	40.206	474.83	580.3	55.475	422.51
215	0.89272	395.11	1555.5	463.18	411.31	1577.2	169.09	443.68	1816.7	331.55	495.4	1493.9	317.16	354.87	1576.4	317.73	463.26	1106.5	144.12	463.46	1117	466.32	523.3	1023.7	168.1	533.41	1026.5	440.71	440.81	937.29	108.82	449.49	951.9	497.34	343.35	1082.5	257.29	344.42	1088	350.18	329.29	1055.1	302.79	407.18	535.6	149.78	379.56	521.79	283.95	401.32	541.12	474.73	379.69	549.02	344.13	382.42	114.33	147.4	386.67	110.22	218.68	375.38	108.63	449.26	383.99	127.8	358.92	414.16	766.06	131.81	475.38	757.86	152.54	470.5	684.28	165.69	407.84	691.31	143.86	383.89	749.72	485.77	451.8	748.26	491.72	443.69	673.67	483.66	376.46	675.57	477.73	390.86	449.76	147.98	434.77	459.24	173.03	424.09	400.78	174.88	366.79	390.46	166.86	332.61	373.47	482.5	401.7	377.98	481.79	400	302.23	469.81	329.59	300.99	469.44	302.42	42.026	155.34	297.74	70.1	189.24	309.71	40.776	222.06	307.09	40.327	420.02	304.1	70.069	387.3	320.29	45.442	354.06	517.58	53.64	219.96	479.2	40.385	117.63	575.54	62.504	183.95	530.01	56.816	370.85	488.78	40.204	474.84	580.3	55.478	422.51
216	0.89689	395.08	1555.5	463.2	411.19	1577.2	169.13	443.71	1816.7	331.54	495.34	1493.9	317.18	354.83	1576.4	317.76	463.19	1106.5	144.13	463.41	1117	466.35	523.25	1023.7	168.12	533.36	1026.5	440.73	440.76	937.29	108.84	449.44	951.9	497.37	343.29	1082.5	257.32	344.36	1088	350.21	329.24	1055.1	302.81	407.18	535.6	149.79	379.55	521.79	283.96	401.29	541.12	474.74	379.67	549.01	344.14	382.42	114.33	147.4	386.67	110.21	218.68	375.38	108.63	449.27	383.99	127.8	358.93	414.12	766.06	131.83	475.35	757.87	152.55	470.48	684.29	165.71	407.82	691.31	143.87	383.85	749.72	485.79	451.76	748.26	491.73	443.65	673.67	483.67	376.42	675.57	477.74	390.85	449.76	147.99	434.76	459.24	173.04	424.09	400.78	174.89	366.79	390.46	166.87	332.59	373.46	482.51	401.68	377.98	481.8	399.99	302.23	469.82	329.56	300.95	469.38	302.42	42.026	155.34	297.74	70.101	189.24	309.71	40.774	222.06	307.09	40.324	420.02	304.1	70.068	387.3	320.3	45.44	354.06	517.58	53.641	219.96	479.2	40.387	117.63	575.53	62.504	183.95	530.01	56.818	370.85	488.78	40.202	474.84	580.3	55.479	422.51
